# xmcd
#
# Track frame offsets: 
#        150
#        22910
#        34310
#        49543
#        59938
#        76770
#        93990
#        107385
#        117865
#        132160
#
# Disc length: 1907 seconds
#
# Revision: 1
# Processed by: cddbd v1.5.1PL0 Copyright (c) Steve Scherf et al.
# Submitted via: ExactAudioCopy v0.95a5
#
DISCID=7707710a
DTITLE=Issac Payton Sweat - Cotton-eyed Joe
DYEAR=1981
DGENRE=Country
TTITLE0=Cotton-eyed Joe/Schottische
TTITLE1=Jole Blon
TTITLE2=National Chilli Anthem
TTITLE3=Hot Corn, Cold Corn
TTITLE4=Medley (Little Foot and Hokey Pokey)
TTITLE5=Bunny Hop
TTITLE6=I'm Gonna Kill Ya
TTITLE7=Walkin' Slowly
TTITLE8=Say It's Not You
TTITLE9=Allon Dancez
EXTD=
EXTT0=
EXTT1=
EXTT2=
EXTT3=
EXTT4=
EXTT5=
EXTT6=
EXTT7=
EXTT8=
EXTT9=
PLAYORDER=
